<svg id="Capa_1" enable-background="new 0 0 512 512" height="100" viewBox="0 0 512 512" width="100" xmlns="http://www.w3.org/2000/svg" style="opacity:0.30; fill:#000000;"><g>
<path d="m90 212v90h21.73l10.85-21.71c5.96-11.91 23.43-10.7 27.65 1.97l13.71 41.13 17.51-70.03c3.77-15.08 25.33-15.1 29.1 0l17.51 70.03 13.71-41.13c4.21-12.62 21.66-13.94 27.65-1.97l10.85 21.71h21.73v-90zm0 0v90h21.73l10.85-21.71c5.96-11.91 23.43-10.7 27.65 1.97l13.71 41.13 17.51-70.03c3.77-15.08 25.33-15.1 29.1 0l17.51 70.03 13.71-41.13c4.21-12.62 21.66-13.94 27.65-1.97l10.85 21.71h21.73v-90zm0 0v90h21.73l10.85-21.71c5.96-11.91 23.43-10.7 27.65 1.97l13.71 41.13 17.51-70.03c3.77-15.08 25.33-15.1 29.1 0l17.51 70.03 13.71-41.13c4.21-12.62 21.66-13.94 27.65-1.97l10.85 21.71h21.73v-90zm181 120c-4.85 0-9.34-2.34-12.13-6.18l-18.64 55.92c-4.75 14.26-25.15 13.42-28.78-1.1l-15.45-61.79-15.45 61.79c-3.63 14.53-24.06 15.27-28.78 1.1l-18.64-55.92c-2.79 3.84-7.28 6.18-12.13 6.18h-31v90h212v-90zm0 0c-4.85 0-9.34-2.34-12.13-6.18l-18.64 55.92c-4.75 14.26-25.15 13.42-28.78-1.1l-15.45-61.79-15.45 61.79c-3.63 14.53-24.06 15.27-28.78 1.1l-18.64-55.92c-2.79 3.84-7.28 6.18-12.13 6.18h-31v90h212v-90zm-181-120v90h21.73l10.85-21.71c5.96-11.91 23.43-10.7 27.65 1.97l13.71 41.13 17.51-70.03c3.77-15.08 25.33-15.1 29.1 0l17.51 70.03 13.71-41.13c4.21-12.62 21.66-13.94 27.65-1.97l10.85 21.71h21.73v-90zm0 0v90h21.73l10.85-21.71c5.96-11.91 23.43-10.7 27.65 1.97l13.71 41.13 17.51-70.03c3.77-15.08 25.33-15.1 29.1 0l17.51 70.03 13.71-41.13c4.21-12.62 21.66-13.94 27.65-1.97l10.85 21.71h21.73v-90zm181 120c-4.85 0-9.34-2.34-12.13-6.18l-18.64 55.92c-4.75 14.26-25.15 13.42-28.78-1.1l-15.45-61.79-15.45 61.79c-3.63 14.53-24.06 15.27-28.78 1.1l-18.64-55.92c-2.79 3.84-7.28 6.18-12.13 6.18h-31v90h212v-90zm0 0c-4.85 0-9.34-2.34-12.13-6.18l-18.64 55.92c-4.75 14.26-25.15 13.42-28.78-1.1l-15.45-61.79-15.45 61.79c-3.63 14.53-24.06 15.27-28.78 1.1l-18.64-55.92c-2.79 3.84-7.28 6.18-12.13 6.18h-31v90h212v-90zm-181-120v90h21.73l10.85-21.71c5.96-11.91 23.43-10.7 27.65 1.97l13.71 41.13 17.51-70.03c3.77-15.08 25.33-15.1 29.1 0l17.51 70.03 13.71-41.13c4.21-12.62 21.66-13.94 27.65-1.97l10.85 21.71h21.73v-90zm0 0v90h21.73l10.85-21.71c5.96-11.91 23.43-10.7 27.65 1.97l13.71 41.13 17.51-70.03c3.77-15.08 25.33-15.1 29.1 0l17.51 70.03 13.71-41.13c4.21-12.62 21.66-13.94 27.65-1.97l10.85 21.71h21.73v-90zm181 120c-4.85 0-9.34-2.34-12.13-6.18l-18.64 55.92c-4.75 14.26-25.15 13.42-28.78-1.1l-15.45-61.79-15.45 61.79c-3.63 14.53-24.06 15.27-28.78 1.1l-18.64-55.92c-2.79 3.84-7.28 6.18-12.13 6.18h-31v90h212v-90zm0 0c-4.85 0-9.34-2.34-12.13-6.18l-18.64 55.92c-4.75 14.26-25.15 13.42-28.78-1.1l-15.45-61.79-15.45 61.79c-3.63 14.53-24.06 15.27-28.78 1.1l-18.64-55.92c-2.79 3.84-7.28 6.18-12.13 6.18h-31v90h212v-90zm-181-120v90h21.73l10.85-21.71c5.96-11.91 23.43-10.7 27.65 1.97l13.71 41.13 17.51-70.03c3.77-15.08 25.33-15.1 29.1 0l17.51 70.03 13.71-41.13c4.21-12.62 21.66-13.94 27.65-1.97l10.85 21.71h21.73v-90zm0 0v90h21.73l10.85-21.71c5.96-11.91 23.43-10.7 27.65 1.97l13.71 41.13 17.51-70.03c3.77-15.08 25.33-15.1 29.1 0l17.51 70.03 13.71-41.13c4.21-12.62 21.66-13.94 27.65-1.97l10.85 21.71h21.73v-90zm181 120c-4.85 0-9.34-2.34-12.13-6.18l-18.64 55.92c-4.75 14.26-25.15 13.42-28.78-1.1l-15.45-61.79-15.45 61.79c-3.63 14.53-24.06 15.27-28.78 1.1l-18.64-55.92c-2.79 3.84-7.28 6.18-12.13 6.18h-31v90h212v-90zm0 0c-4.85 0-9.34-2.34-12.13-6.18l-18.64 55.92c-4.75 14.26-25.15 13.42-28.78-1.1l-15.45-61.79-15.45 61.79c-3.63 14.53-24.06 15.27-28.78 1.1l-18.64-55.92c-2.79 3.84-7.28 6.18-12.13 6.18h-31v90h212v-90zm-181-120v90h21.73l10.85-21.71c5.96-11.91 23.43-10.7 27.65 1.97l13.71 41.13 17.51-70.03c3.77-15.08 25.33-15.1 29.1 0l17.51 70.03 13.71-41.13c4.21-12.62 21.66-13.94 27.65-1.97l10.85 21.71h21.73v-90zm377-90h-156.58c-15.563 21.909-40.271 42.249-61.86 60h68.44c8.28 0 15 6.72 15 15v240c0 8.28-6.72 15-15 15h-242c-8.28 0-15-6.72-15-15v-240c0-8.28 6.72-15 15-15h68.45c-21.699-17.836-46.098-37.919-61.87-60h-36.58c-24.81 0-45 20.19-45 45v300c0 24.81 20.19 45 45 45h422c24.81 0 45-20.19 45-45v-300c0-24.81-20.19-45-45-45zm-90 60c8.28 0 15 6.72 15 15s-6.72 15-15 15-15-6.72-15-15 6.72-15 15-15zm0 60c8.28 0 15 6.72 15 15s-6.72 15-15 15-15-6.72-15-15 6.72-15 15-15zm0 60c8.28 0 15 6.72 15 15s-6.72 15-15 15-15-6.72-15-15 6.72-15 15-15zm60 150h-60c-8.28 0-15-6.72-15-15s6.72-15 15-15h60c8.28 0 15 6.72 15 15s-6.72 15-15 15zm0-60h-60c-8.28 0-15-6.72-15-15s6.72-15 15-15h60c8.28 0 15 6.72 15 15s-6.72 15-15 15zm0-60c-8.28 0-15-6.72-15-15s6.72-15 15-15 15 6.72 15 15-6.72 15-15 15zm0-60c-8.28 0-15-6.72-15-15s6.72-15 15-15 15 6.72 15 15-6.72 15-15 15zm0-60c-8.28 0-15-6.72-15-15s6.72-15 15-15 15 6.72 15 15-6.72 15-15 15zm-166 120c-4.85 0-9.34-2.34-12.13-6.18l-18.64 55.92c-4.75 14.26-25.15 13.42-28.78-1.1l-15.45-61.79-15.45 61.79c-3.63 14.53-24.06 15.27-28.78 1.1l-18.64-55.92c-2.79 3.84-7.28 6.18-12.13 6.18h-31v90h212v-90zm-181-120v90h21.73l10.85-21.71c5.96-11.91 23.43-10.7 27.65 1.97l13.71 41.13 17.51-70.03c3.77-15.08 25.33-15.1 29.1 0l17.51 70.03 13.71-41.13c4.21-12.62 21.66-13.94 27.65-1.97l10.85 21.71h21.73v-90zm0 0v90h21.73l10.85-21.71c5.96-11.91 23.43-10.7 27.65 1.97l13.71 41.13 17.51-70.03c3.77-15.08 25.33-15.1 29.1 0l17.51 70.03 13.71-41.13c4.21-12.62 21.66-13.94 27.65-1.97l10.85 21.71h21.73v-90zm181 120c-4.85 0-9.34-2.34-12.13-6.18l-18.64 55.92c-4.75 14.26-25.15 13.42-28.78-1.1l-15.45-61.79-15.45 61.79c-3.63 14.53-24.06 15.27-28.78 1.1l-18.64-55.92c-2.79 3.84-7.28 6.18-12.13 6.18h-31v90h212v-90zm0 0c-4.85 0-9.34-2.34-12.13-6.18l-18.64 55.92c-4.75 14.26-25.15 13.42-28.78-1.1l-15.45-61.79-15.45 61.79c-3.63 14.53-24.06 15.27-28.78 1.1l-18.64-55.92c-2.79 3.84-7.28 6.18-12.13 6.18h-31v90h212v-90zm-181-120v90h21.73l10.85-21.71c5.96-11.91 23.43-10.7 27.65 1.97l13.71 41.13 17.51-70.03c3.77-15.08 25.33-15.1 29.1 0l17.51 70.03 13.71-41.13c4.21-12.62 21.66-13.94 27.65-1.97l10.85 21.71h21.73v-90zm0 0v90h21.73l10.85-21.71c5.96-11.91 23.43-10.7 27.65 1.97l13.71 41.13 17.51-70.03c3.77-15.08 25.33-15.1 29.1 0l17.51 70.03 13.71-41.13c4.21-12.62 21.66-13.94 27.65-1.97l10.85 21.71h21.73v-90zm181 120c-4.85 0-9.34-2.34-12.13-6.18l-18.64 55.92c-4.75 14.26-25.15 13.42-28.78-1.1l-15.45-61.79-15.45 61.79c-3.63 14.53-24.06 15.27-28.78 1.1l-18.64-55.92c-2.79 3.84-7.28 6.18-12.13 6.18h-31v90h212v-90zm0 0c-4.85 0-9.34-2.34-12.13-6.18l-18.64 55.92c-4.75 14.26-25.15 13.42-28.78-1.1l-15.45-61.79-15.45 61.79c-3.63 14.53-24.06 15.27-28.78 1.1l-18.64-55.92c-2.79 3.84-7.28 6.18-12.13 6.18h-31v90h212v-90zm-181-120v90h21.73l10.85-21.71c5.96-11.91 23.43-10.7 27.65 1.97l13.71 41.13 17.51-70.03c3.77-15.08 25.33-15.1 29.1 0l17.51 70.03 13.71-41.13c4.21-12.62 21.66-13.94 27.65-1.97l10.85 21.71h21.73v-90zm0 0v90h21.73l10.85-21.71c5.96-11.91 23.43-10.7 27.65 1.97l13.71 41.13 17.51-70.03c3.77-15.08 25.33-15.1 29.1 0l17.51 70.03 13.71-41.13c4.21-12.62 21.66-13.94 27.65-1.97l10.85 21.71h21.73v-90zm181 120c-4.85 0-9.34-2.34-12.13-6.18l-18.64 55.92c-4.75 14.26-25.15 13.42-28.78-1.1l-15.45-61.79-15.45 61.79c-3.63 14.53-24.06 15.27-28.78 1.1l-18.64-55.92c-2.79 3.84-7.28 6.18-12.13 6.18h-31v90h212v-90zm0 0c-4.85 0-9.34-2.34-12.13-6.18l-18.64 55.92c-4.75 14.26-25.15 13.42-28.78-1.1l-15.45-61.79-15.45 61.79c-3.63 14.53-24.06 15.27-28.78 1.1l-18.64-55.92c-2.79 3.84-7.28 6.18-12.13 6.18h-31v90h212v-90zm-181-120v90h21.73l10.85-21.71c5.96-11.91 23.43-10.7 27.65 1.97l13.71 41.13 17.51-70.03c3.77-15.08 25.33-15.1 29.1 0l17.51 70.03 13.71-41.13c4.21-12.62 21.66-13.94 27.65-1.97l10.85 21.71h21.73v-90zm0 0v90h21.73l10.85-21.71c5.96-11.91 23.43-10.7 27.65 1.97l13.71 41.13 17.51-70.03c3.77-15.08 25.33-15.1 29.1 0l17.51 70.03 13.71-41.13c4.21-12.62 21.66-13.94 27.65-1.97l10.85 21.71h21.73v-90zm181 120c-4.85 0-9.34-2.34-12.13-6.18l-18.64 55.92c-4.75 14.26-25.15 13.42-28.78-1.1l-15.45-61.79-15.45 61.79c-3.63 14.53-24.06 15.27-28.78 1.1l-18.64-55.92c-2.79 3.84-7.28 6.18-12.13 6.18h-31v90h212v-90zm0 0c-4.85 0-9.34-2.34-12.13-6.18l-18.64 55.92c-4.75 14.26-25.15 13.42-28.78-1.1l-15.45-61.79-15.45 61.79c-3.63 14.53-24.06 15.27-28.78 1.1l-18.64-55.92c-2.79 3.84-7.28 6.18-12.13 6.18h-31v90h212v-90zm-181-120v90h21.73l10.85-21.71c5.96-11.91 23.43-10.7 27.65 1.97l13.71 41.13 17.51-70.03c3.77-15.08 25.33-15.1 29.1 0l17.51 70.03 13.71-41.13c4.21-12.62 21.66-13.94 27.65-1.97l10.85 21.71h21.73v-90zm0 0v90h21.73l10.85-21.71c5.96-11.91 23.43-10.7 27.65 1.97l13.71 41.13 17.51-70.03c3.77-15.08 25.33-15.1 29.1 0l17.51 70.03 13.71-41.13c4.21-12.62 21.66-13.94 27.65-1.97l10.85 21.71h21.73v-90z"/><g><path d="m241 0c-17.71 0-33.19 7.52-45 21.79-11.81-14.27-27.29-21.79-45-21.79-33.64 0-60 27.22-60 61.97 0 43.02 41.26 71.44 95.4 116.55 5.56 4.64 13.64 4.64 19.2 0 53.98-44.98 95.4-73.48 95.4-116.55 0-34.75-26.36-61.97-60-61.97z"/></g></g></svg>